<svg width="24" height="34" viewBox="0 0 24 34" fill="none" xmlns="http://www.w3.org/2000/svg">
<g id="Icon">
<g id="Deals">
<g id="Group">
<path id="Vector" d="M20.7144 33.5714H6.71436C5.05986 33.5714 3.71436 32.2473 3.71436 30.619V16.8408C3.71436 15.3513 4.50586 13.3643 5.51586 12.3177L7.18086 10.5934C7.37086 10.3976 7.68736 10.3882 7.88736 10.5757C8.08736 10.7632 8.09586 11.0747 7.90536 11.2715L6.24086 12.9957C5.41336 13.8529 4.71436 15.6136 4.71436 16.8408V30.619C4.71436 31.7045 5.61136 32.5873 6.71436 32.5873H20.7144C21.8174 32.5873 22.7144 31.7045 22.7144 30.619V16.8408C22.7144 15.6136 21.9889 13.8254 21.1304 12.9352L15.0739 6.66174C14.6584 6.23118 14.1209 5.98464 13.5979 5.98464C13.3289 5.98464 12.9439 6.05157 12.6349 6.37191L11.1929 7.86536C11.0034 8.0617 10.6864 8.07056 10.4864 7.88308C10.2864 7.69609 10.2779 7.3846 10.4684 7.18728L11.9104 5.69334C12.3414 5.24653 12.9414 5 13.5979 5C14.3939 5 15.1954 5.35872 15.7984 5.98366L21.8549 12.2576C22.8979 13.3377 23.7144 15.3513 23.7144 16.8408V30.619C23.7144 32.2473 22.3689 33.5714 20.7144 33.5714Z" fill="#28B0A6"/>
<path id="Vector_2" d="M13.7142 12.6792C12.3552 12.6792 11.2495 11.5735 11.2495 10.2145C11.2495 8.85552 12.3552 7.74982 13.7142 7.74982C15.0732 7.74982 16.1789 8.85552 16.1789 10.2145C16.1789 11.5735 15.0732 12.6792 13.7142 12.6792ZM13.7142 9.03552C13.0636 9.03552 12.5352 9.56459 12.5352 10.2145C12.5352 10.8644 13.0636 11.3935 13.7142 11.3935C14.3648 11.3935 14.8932 10.8644 14.8932 10.2145C14.8932 9.56459 14.3648 9.03552 13.7142 9.03552Z" fill="#28B0A6"/>
<path id="Vector_3" d="M12.2767 9.74972C12.1295 9.74972 11.981 9.69893 11.8601 9.59608L1.08337 0.41808C0.813377 0.187939 0.780592 -0.217701 1.01073 -0.488341C1.24152 -0.758339 1.64716 -0.791125 1.91715 -0.560984L12.6939 8.61701C12.9639 8.84715 12.9967 9.25279 12.7666 9.52343C12.6386 9.67258 12.458 9.74972 12.2767 9.74972Z" fill="#28B0A6"/>
</g>
<g id="Group_2">
<path id="Vector_4" d="M13.7135 30.143C12.2954 30.143 11.1421 28.9897 11.1421 27.5716C11.1421 27.2167 11.4294 26.9287 11.7849 26.9287C12.1404 26.9287 12.4278 27.2167 12.4278 27.5716C12.4278 28.2806 13.0044 28.8573 13.7135 28.8573C14.4226 28.8573 14.9992 28.2806 14.9992 27.5716C14.9992 26.8625 14.4226 26.2859 13.7135 26.2859C12.2954 26.2859 11.1421 25.1326 11.1421 23.7144C11.1421 22.2963 12.2954 21.143 13.7135 21.143C15.1316 21.143 16.2849 22.2963 16.2849 23.7144C16.2849 24.0693 15.9975 24.3573 15.6421 24.3573C15.2866 24.3573 14.9992 24.0693 14.9992 23.7144C14.9992 23.0054 14.4226 22.4287 13.7135 22.4287C13.0044 22.4287 12.4278 23.0054 12.4278 23.7144C12.4278 24.4235 13.0044 25.0001 13.7135 25.0001C15.1316 25.0001 16.2849 26.1534 16.2849 27.5716C16.2849 28.9897 15.1316 30.143 13.7135 30.143Z" fill="#28B0A6"/>
<path id="Vector_5" d="M13.7137 32.0715C13.3582 32.0715 13.0708 31.7883 13.0708 31.4392V19.8468C13.0708 19.4977 13.3582 19.2145 13.7137 19.2145C14.0691 19.2145 14.3565 19.4977 14.3565 19.8468V31.4392C14.3565 31.7889 14.0691 32.0715 13.7137 32.0715Z" fill="#28B0A6"/>
</g>
</g>
</g>
</svg>
