<svg width="32" height="32" viewBox="0 0 32 32" fill="none" xmlns="http://www.w3.org/2000/svg">
<g id="Icon">
<g id="Group">
<g id="Group_2">
<g id="Group_3">
<path id="Vector" d="M30.214 15.9997C30.2065 18.964 29.2914 21.8382 27.5812 24.2547C25.9535 26.5586 23.5833 28.3747 20.928 29.3428C18.1076 30.3709 15.0098 30.4985 12.122 29.6805C9.33914 28.8925 6.86386 27.249 5.01865 25.0352C1.20821 20.4574 0.758163 13.7333 3.82601 8.6452C6.88636 3.57212 12.9771 0.862972 18.7902 2.04119C24.5884 3.2194 29.1189 7.96228 30.049 13.8008C30.169 14.5363 30.214 15.2717 30.214 15.9997C30.214 16.9678 31.7142 16.9678 31.7142 15.9997C31.7067 12.7577 30.7091 9.54575 28.8189 6.90414C26.9511 4.29256 24.3408 2.30385 21.3255 1.20068C15.1898 -1.03568 8.04149 0.930513 3.90102 5.97358C1.82328 8.49511 0.578143 11.587 0.330614 14.844C0.0830862 18.0634 0.863175 21.3429 2.52836 24.1046C4.15605 26.7987 6.60133 29.0051 9.47416 30.3034C12.512 31.6767 15.9174 32.0594 19.1878 31.399C25.481 30.1232 30.5366 24.84 31.5117 18.4912C31.6392 17.6657 31.7067 16.8402 31.7142 16.0072C31.7217 15.0316 30.2215 15.0316 30.214 15.9997Z" fill="#28B0A6"/>
</g>
</g>
<g id="Group_4">
<g id="Group_5">
<path id="Vector_2" d="M9.30282 10.3534C10.6982 11.7488 12.0936 13.1441 13.489 14.5394C15.7009 16.7511 17.9127 18.9628 20.1246 21.1745C20.6293 21.6792 21.1415 22.1913 21.6462 22.696C22.3216 23.3714 23.3756 22.3249 22.6927 21.6495C21.2973 20.2542 19.9019 18.8589 18.5065 17.4636C16.2947 15.2519 14.0828 13.0402 11.871 10.8284C11.3662 10.3238 10.8541 9.81165 10.3494 9.30696C9.68136 8.62415 8.62739 9.67806 9.30282 10.3534Z" fill="#28B0A6"/>
</g>
</g>
<g id="Group_6">
<g id="Group_7">
<path id="Vector_3" d="M10.3532 22.6969C11.7485 21.3015 13.1438 19.9061 14.5391 18.5107C16.7509 16.2988 18.9626 14.087 21.1743 11.8751C21.679 11.3704 22.1911 10.8582 22.6958 10.3535C23.3712 9.6781 22.3247 8.62412 21.6493 9.30698C20.254 10.7024 18.8587 12.0978 17.4634 13.4932C15.2516 15.705 13.0399 17.9169 10.8282 20.1288C10.3235 20.6335 9.81141 21.1456 9.30672 21.6503C8.62391 22.3184 9.67781 23.3723 10.3532 22.6969Z" fill="#28B0A6"/>
</g>
</g>
</g>
</g>
</svg>
