<svg width="32" height="32" viewBox="0 0 32 32" fill="none" xmlns="http://www.w3.org/2000/svg">
<g id="Special">
<path id="Vector" d="M30.6884 24.293L27.6683 26.8779L23.5225 21.9558C24.2414 21.0936 24.6342 20.0026 24.6313 18.8762C24.6283 17.7499 24.2298 16.661 23.5063 15.8026L22.2068 14.2562L25.4651 10.387L24.2575 9.35504L23.3354 10.4507L18.5393 6.34578L18.5397 6.34533L19.462 5.24945L18.2544 4.21426L16.0009 6.89168L13.7474 4.21426L12.5398 5.24945L13.4616 6.34481L8.66369 10.4513L8.6634 10.4509L7.74106 9.35504L6.53347 10.387L9.79492 14.2594L8.49541 15.8026C7.77255 16.6612 7.37416 17.7498 7.37068 18.8759C7.3672 20.002 7.75886 21.093 8.47639 21.9562L8.47676 21.9566L4.33152 26.8779L1.31141 24.293L0.285645 25.5105L7.53409 31.7143L8.55986 30.4968L5.53943 27.9117L9.68395 22.9913L9.68401 22.9913C10.413 23.4272 11.2452 23.6568 12.0929 23.6559C12.2228 23.6559 12.3528 23.6527 12.4859 23.6399C13.1053 23.5912 13.7089 23.419 14.2617 23.1333C14.8145 22.8475 15.3055 22.4539 15.7061 21.9753L16.0009 21.6271L16.2925 21.9753C16.6932 22.4539 17.1841 22.8475 17.737 23.1333C18.2898 23.419 18.8934 23.5912 19.5127 23.6399C19.6459 23.6527 19.7758 23.6559 19.9058 23.6559C20.7536 23.6583 21.5862 23.4286 22.3146 22.9913L22.3155 22.9908L26.4604 27.9117L23.44 30.4968L24.4658 31.7143L31.7142 25.5105L30.6884 24.293ZM9.69033 11.6682L9.69023 11.6681L14.4882 7.56165L14.489 7.56264L14.9613 8.12496L10.8345 13.0261L9.69033 11.6682ZM14.9581 20.3938L14.4985 20.9401C13.9584 21.5812 13.1879 21.9797 12.3563 22.048C11.5247 22.1163 10.7003 21.8488 10.0644 21.3044C9.42843 20.7599 9.0331 19.9832 8.96534 19.1449C8.89758 18.3066 9.16293 17.4756 9.70303 16.8346L17.5128 7.56264L17.5128 7.5626L22.3089 11.6675L22.3083 11.6682L14.9581 20.3938ZM19.6427 22.0488C19.2307 22.0154 18.8294 21.9002 18.4617 21.7099C18.094 21.5197 17.7672 21.2581 17.5001 20.9401L17.0405 20.3938L21.1672 15.4895L22.2988 16.8346C22.7008 17.3131 22.9532 17.901 23.024 18.524C23.0949 19.1471 22.981 19.7773 22.6968 20.3351C22.4127 20.893 21.9709 21.3535 21.4274 21.6585C20.8838 21.9635 20.2628 22.0993 19.6427 22.0488V22.0488Z" fill="#28B0A6"/>
<path id="Vector_2" d="M16.9819 0.285706H15.0176V3.23213H16.9819V0.285706Z" fill="#28B0A6"/>
<path id="Vector_3" d="M5.35299 4.10267L4.23242 5.22308L6.47332 7.46429L7.59389 6.34388L5.35299 4.10267Z" fill="#28B0A6"/>
<path id="Vector_4" d="M26.6441 4.10254L24.4033 6.3439L25.524 7.46424L27.7647 5.22287L26.6441 4.10254Z" fill="#28B0A6"/>
<path id="Vector_5" d="M1.83366 8.69494L1.18945 10.1428L4.08522 11.4312L4.72942 9.98336L1.83366 8.69494Z" fill="#28B0A6"/>
<path id="Vector_6" d="M21.7066 1.06136L20.418 3.95685L21.8658 4.60121L23.1545 1.70572L21.7066 1.06136Z" fill="#28B0A6"/>
<path id="Vector_7" d="M10.2998 1.06546L8.85156 1.70886L10.1383 4.60522L11.5865 3.96182L10.2998 1.06546Z" fill="#28B0A6"/>
<path id="Vector_8" d="M30.1692 8.71185L27.2729 9.99875L27.9164 11.4469L30.8127 10.16L30.1692 8.71185Z" fill="#28B0A6"/>
<path id="Vector_9" d="M13.0534 18.9464H12.0713V19.9286H13.0534V18.9464Z" fill="#28B0A6"/>
<path id="Vector_10" d="M15.9999 16H14.0356V17.9643H15.9999V16Z" fill="#28B0A6"/>
<path id="Vector_11" d="M17.9641 13.0536H16.9819V15.0178H17.9641V13.0536Z" fill="#28B0A6"/>
</g>
</svg>
