<svg width="40" height="30" viewBox="0 0 40 30" fill="none" xmlns="http://www.w3.org/2000/svg">
<g id="Timer">
<path id="Vector" d="M13.9638 6.92308C13.5602 7.32441 12.9549 7.42475 12.5514 7.12375C12.047 6.72241 12.047 6.1204 12.3496 5.71906C15.2753 2.10702 19.6133 0 24.1532 0C32.5266 0 39.2859 6.72241 39.2859 15.0502C39.2859 23.2776 32.5266 30 24.1532 30C19.6133 30 15.2753 27.893 12.3496 24.2809C12.047 23.8796 12.047 23.2776 12.5514 22.8763C12.9549 22.5753 13.5602 22.6756 13.9638 23.0769C16.4859 26.1873 20.2187 27.9933 24.1532 27.9933C31.4169 27.9933 37.2682 22.1739 37.2682 15.0502C37.2682 7.82609 31.4169 2.00669 24.1532 2.00669C20.2187 2.00669 16.4859 3.81271 13.9638 6.92308Z" fill="#28B0A6"/>
<path id="Vector_2" d="M23.5713 7.44897C23.5713 6.93876 23.9903 6.42856 24.6189 6.42856C25.1427 6.42856 25.6665 6.93876 25.6665 7.44897V14.3877H30.3808C30.9046 14.3877 31.4284 14.7959 31.4284 15.4082C31.4284 15.9184 30.9046 16.4286 30.3808 16.4286L24.6189 16.3265C24.0951 16.3265 23.5713 15.9184 23.5713 15.4082V7.44897Z" fill="#28B0A6"/>
<path id="Vector_3" d="M3.85589 11.4286C3.25681 11.4286 2.85742 10.8928 2.85742 10.3571C2.85742 9.71428 3.25681 9.28571 3.85589 9.28571H11.1447C11.6439 9.28571 12.1431 9.71428 12.1431 10.3571C12.1431 10.8928 11.6439 11.4286 11.1447 11.4286H3.85589Z" fill="#28B0A6"/>
<path id="Vector_4" d="M1.71686 16.4286C1.11536 16.4286 0.714355 15.8928 0.714355 15.3571C0.714355 14.7143 1.11536 14.2857 1.71686 14.2857H11.1404C11.6417 14.2857 12.1429 14.7143 12.1429 15.3571C12.1429 15.8928 11.6417 16.4286 11.1404 16.4286H1.71686Z" fill="#28B0A6"/>
<path id="Vector_5" d="M3.85589 20.7143C3.25681 20.7143 2.85742 20.2857 2.85742 19.6429C2.85742 19.1072 3.25681 18.5714 3.85589 18.5714H11.1447C11.6439 18.5714 12.1431 19.1072 12.1431 19.6429C12.1431 20.2857 11.6439 20.7143 11.1447 20.7143H3.85589Z" fill="#28B0A6"/>
</g>
</svg>
