<svg width="36" height="23" viewBox="0 0 36 23" fill="none" xmlns="http://www.w3.org/2000/svg">
<g id="Chopper">
<path id="Vector" d="M34.7771 20.2786C33.9749 20.924 32.9618 21.3121 31.8878 21.3942V20.0878C33.0418 19.9881 34.096 19.4893 34.8261 18.681C35.6104 17.8136 35.9649 16.6836 35.8266 15.5172L35.3558 10.2407C35.0641 7.7822 32.6926 5.78153 30.0698 5.78153H25.9359V4.479H33.231C33.596 4.479 33.8923 4.18724 33.8923 3.82774C33.8923 3.46825 33.596 3.17648 33.231 3.17648H17.3592C16.9942 3.17648 16.6979 3.46825 16.6979 3.82774C16.6979 4.18724 16.9942 4.479 17.3592 4.479H24.6133V5.78153H5.28881L4.09116 1.06445C4.01775 0.775286 3.75322 0.571442 3.44967 0.571442H0.804388C0.439338 0.571442 0.143066 0.863206 0.143066 1.2227V9.03783C0.143066 9.37388 0.402966 9.65457 0.742885 9.68648L16.1603 11.1101L16.5134 15.6507C16.7865 17.9542 18.8856 19.8553 21.3067 20.0858V21.3753C20.2618 21.2906 19.2539 20.9546 18.3704 20.3593C18.0688 20.1555 17.6575 20.2323 17.4512 20.5293C17.2448 20.8263 17.3222 21.2314 17.6238 21.4346C18.8671 22.2714 20.3107 22.7143 21.7994 22.7143H31.4593C32.9942 22.7143 34.4703 22.2076 35.6144 21.2874C35.8974 21.0594 35.9391 20.6498 35.7083 20.3711C35.4775 20.0923 35.0602 20.0513 34.7771 20.2786ZM30.5652 20.1093V21.4118H22.6293V20.1093H30.5652ZM17.8301 15.525L17.4366 10.4628C17.4122 10.1463 17.1595 9.89358 16.8388 9.86428L1.46571 8.44453V1.87396H2.93318L4.13083 6.59104C4.20424 6.88085 4.46877 7.08405 4.77232 7.08405H30.0698C32.0102 7.08405 33.8295 8.59888 34.0404 10.3736L34.5113 15.6507C34.6072 16.4602 34.3684 17.23 33.8381 17.8155C33.2607 18.4544 32.4156 18.8067 31.4593 18.8067H21.7994C19.859 18.8067 18.0397 17.2919 17.8301 15.525Z" fill="#28B0A6"/>
<path id="Vector_2" d="M27.2356 13.4286H31.5422C31.992 13.4286 32.3908 13.2742 32.6662 12.9942C32.9219 12.7336 33.0359 12.383 32.9904 12.0255L32.7822 9.86734C32.6798 9.07359 31.8454 8.42859 30.9229 8.42859H25.8213C25.6327 8.42859 25.453 8.50109 25.3241 8.62796C25.1959 8.75546 25.1308 8.92609 25.145 9.09921L25.3804 12.0136C25.495 12.7936 26.3273 13.4286 27.2356 13.4286ZM30.9229 9.67859C31.1773 9.67859 31.4181 9.88484 31.4323 9.99609L31.6596 12.1561C31.6541 12.1605 31.6175 12.1786 31.5422 12.1786H27.2356C26.9805 12.1786 26.7438 11.9773 26.7289 11.8836L26.5518 9.67859H30.9229Z" fill="#28B0A6"/>
<path id="Vector_3" d="M23.0004 10.5715H24.429C24.8233 10.5715 25.1433 10.2515 25.1433 9.85717C25.1433 9.46288 24.8233 9.14288 24.429 9.14288H23.0004C22.6061 9.14288 22.2861 9.46288 22.2861 9.85717C22.2861 10.2515 22.6061 10.5715 23.0004 10.5715Z" fill="#28B0A6"/>
<path id="Vector_4" d="M20.8572 9.14288H19.4286C19.0344 9.14288 18.7144 9.46288 18.7144 9.85717C18.7144 10.2515 19.0344 10.5715 19.4286 10.5715H20.8572C21.2515 10.5715 21.5715 10.2515 21.5715 9.85717C21.5715 9.46288 21.2515 9.14288 20.8572 9.14288Z" fill="#28B0A6"/>
</g>
</svg>
