<svg width="34" height="32" viewBox="0 0 34 32" fill="none" xmlns="http://www.w3.org/2000/svg">
<g id="Star Plus">
<path id="Vector" d="M1.28707 15.0014L1.28636 15.0007L1.28564 15L1.28707 15.0014Z" fill="#28B0A6"/>
<path id="Vector_2" d="M3.33092 10.7662L11.2787 9.62569C11.4524 9.60095 11.6007 9.49363 11.6784 9.33682L15.239 2.15558L15.2401 2.15339C15.4238 1.78012 15.6852 1.51199 15.9907 1.32973C16.2959 1.14818 16.6482 1.05578 17.0027 1.05578C17.3572 1.05578 17.711 1.14818 18.0198 1.33045C18.329 1.51345 18.5945 1.78303 18.7832 2.15776L18.7814 2.15485L22.3208 9.3361C22.3982 9.4929 22.5472 9.60095 22.7209 9.62605L30.6687 10.7666C31.205 10.8448 31.6182 11.1013 31.9125 11.4571C32.2053 11.8126 32.3685 12.2706 32.3681 12.7283C32.3663 13.2216 32.1878 13.7076 31.7738 14.1107L29.5621 16.2518C29.3522 16.4551 29.3475 16.7895 29.5512 16.9987C29.7552 17.2079 30.0908 17.2126 30.3007 17.0096L32.5123 14.8686L32.5127 14.8682C33.1362 14.2668 33.4305 13.4846 33.4283 12.7283C33.4279 12.0239 33.1826 11.336 32.7328 10.7881C32.2841 10.2402 31.6204 9.83524 30.8205 9.72173L23.1492 8.62085L19.7328 1.68917L19.7313 1.6859C19.4535 1.13109 19.0384 0.703973 18.5598 0.42202C18.0808 0.139703 17.5408 0 17.0027 0C16.4642 0 15.925 0.139703 15.4482 0.423111C14.9714 0.705428 14.56 1.13436 14.288 1.69026L14.2891 1.68808L10.8519 8.62012L3.18014 9.72101C2.37953 9.83488 1.71582 10.2398 1.2675 10.7877C0.816995 11.3356 0.571663 12.0236 0.571298 12.7279C0.569472 13.4839 0.86336 14.2661 1.48691 14.8678L7.05179 20.2708L5.74262 27.8941C5.71013 28.0763 5.69443 28.2568 5.69443 28.4339C5.6937 29.2798 6.05331 30.0351 6.60603 30.5681C7.15876 31.1021 7.91009 31.4277 8.71582 31.4281C9.18604 31.4285 9.67305 31.3146 10.1334 31.0723L10.1352 31.0716L18.3287 26.7826C18.5879 26.6469 18.6876 26.3278 18.5514 26.0695C18.4152 25.8112 18.0947 25.7119 17.8358 25.8476L9.64275 30.1366L9.64202 30.1373C9.32988 30.301 9.01883 30.3716 8.71655 30.372C8.20215 30.3727 7.70784 30.161 7.34495 29.8099C6.98243 29.4577 6.75571 28.98 6.75498 28.4339C6.75498 28.319 6.76521 28.2 6.78711 28.0778L6.78748 28.0745L8.14411 20.1755C8.17331 20.0048 8.11599 19.8287 7.9915 19.708L2.2262 14.1107L2.22546 14.11C1.8111 13.7069 1.63294 13.2212 1.63075 12.7279C1.63039 12.2702 1.79358 11.8126 2.08637 11.4567C2.38099 11.1013 2.79426 10.8448 3.33092 10.7662Z" fill="#28B0A6"/>
<path id="Vector_3" d="M5.74316 27.8967L5.74359 27.8941V27.8929L5.74316 27.8967Z" fill="#28B0A6"/>
<path id="Vector_4" d="M32.8986 25.0916H28.1296V20.3396C28.1296 20.0478 27.8923 19.8113 27.5995 19.8113C27.3067 19.8113 27.0694 20.0478 27.0694 20.3396V25.0916H22.3011C22.0083 25.0916 21.771 25.3281 21.771 25.6199C21.771 25.9117 22.0083 26.1482 22.3011 26.1482H27.0697V30.9002C27.0697 31.192 27.307 31.4285 27.5998 31.4285C27.8926 31.4285 28.1299 31.192 28.1299 30.9002V26.1478H32.8986C33.1914 26.1478 33.4287 25.9113 33.4287 25.6195C33.4283 25.3278 33.191 25.0916 32.8986 25.0916Z" fill="#28B0A6"/>
</g>
</svg>
